<?xml version="1.0" encoding="UTF-8" standalone="no"?>
<!DOCTYPE svg PUBLIC "-//W3C//DTD SVG 1.1//EN"
 "http://www.w3.org/Graphics/SVG/1.1/DTD/svg11.dtd">
<!-- Generated by graphviz version 2.38.0 (20140413.2041)
 -->
<!-- Title: %3 Pages: 1 -->
<svg width="3680pt" height="3158pt"
 viewBox="0.00 0.00 3680.00 3158.00" xmlns="http://www.w3.org/2000/svg" xmlns:xlink="http://www.w3.org/1999/xlink">
<g id="graph0" class="graph" transform="scale(1 1) rotate(0) translate(4 3154)">
<title>%3</title>
<polygon fill="white" stroke="none" points="-4,4 -4,-3154 3676,-3154 3676,4 -4,4"/>
<!-- cesis -->
<g id="node1" class="node"><title>cesis</title>
<polygon fill="none" stroke="black" points="2808,-972 2592,-972 2592,-864 2808,-864 2808,-972"/>
<text text-anchor="middle" x="2700" y="-913" font-family="Helvetica,sans-Serif" font-size="20.00">cesis</text>
</g>
<!-- nida -->
<g id="node2" class="node"><title>nida</title>
<polygon fill="none" stroke="black" points="2376,-540 2160,-540 2160,-432 2376,-432 2376,-540"/>
<text text-anchor="middle" x="2268" y="-481" font-family="Helvetica,sans-Serif" font-size="20.00">nida</text>
</g>
<!-- cesis&#45;&#45;nida -->
<g id="edge4" class="edge"><title>cesis&#45;&#45;nida</title>
<path fill="none" stroke="#3070b3" stroke-width="3" d="M2591.88,-918C2443.79,-918 2196,-918 2196,-918 2196,-918 2196,-656.302 2196,-540.276"/>
<g id="a_edge4&#45;headlabel"><a xlink:title="00:25:90:e8:40:c0">
<text text-anchor="middle" x="2166.5" y="-543.876" font-family="Helvetica,sans-Serif" font-size="13.00">enp5s0f0</text>
</a>
</g>
<g id="a_edge4&#45;taillabel"><a xlink:title="00:25:90:ed:bd:dc">
<text text-anchor="middle" x="2575.88" y="-921.6" font-family="Helvetica,sans-Serif" font-size="13.00">eno1</text>
</a>
</g>
</g>
<!-- cesis&#45;&#45;nida -->
<g id="edge5" class="edge"><title>cesis&#45;&#45;nida</title>
<path fill="none" stroke="#3070b3" stroke-width="3" d="M2591.75,-904C2453.52,-904 2232,-904 2232,-904 2232,-904 2232,-653.318 2232,-540.218"/>
<g id="a_edge5&#45;headlabel"><a xlink:title="00:25:90:e8:40:c1">
<text text-anchor="middle" x="2261.5" y="-543.818" font-family="Helvetica,sans-Serif" font-size="13.00">enp5s0f1</text>
</a>
</g>
<g id="a_edge5&#45;taillabel"><a xlink:title="00:25:90:ed:bd:dd">
<text text-anchor="middle" x="2575.75" y="-907.6" font-family="Helvetica,sans-Serif" font-size="13.00">eno2</text>
</a>
</g>
</g>
<!-- cesis&#45;&#45;nida -->
<g id="edge6" class="edge"><title>cesis&#45;&#45;nida</title>
<path fill="none" stroke="#3070b3" stroke-width="3" d="M2591.82,-891C2463.86,-891 2268,-891 2268,-891 2268,-891 2268,-650.559 2268,-540.2"/>
<g id="a_edge6&#45;headlabel"><a xlink:title="a0:36:9f:3b:5b:4c">
<text text-anchor="middle" x="2306" y="-543.8" font-family="Helvetica,sans-Serif" font-size="13.00">enp131s0f0</text>
</a>
</g>
<g id="a_edge6&#45;taillabel"><a xlink:title="a0:36:9f:59:07:00">
<text text-anchor="middle" x="2562.32" y="-880.6" font-family="Helvetica,sans-Serif" font-size="13.00">enp5s0f0</text>
</a>
</g>
</g>
<!-- cesis&#45;&#45;nida -->
<g id="edge7" class="edge"><title>cesis&#45;&#45;nida</title>
<path fill="none" stroke="#3070b3" stroke-width="3" d="M2591.79,-877C2474.54,-877 2304,-877 2304,-877 2304,-877 2304,-647.803 2304,-540.367"/>
<g id="a_edge7&#45;headlabel"><a xlink:title="a0:36:9f:3b:5b:4e">
<text text-anchor="middle" x="2342" y="-543.967" font-family="Helvetica,sans-Serif" font-size="13.00">enp131s0f1</text>
</a>
</g>
<g id="a_edge7&#45;taillabel"><a xlink:title="a0:36:9f:59:07:02">
<text text-anchor="middle" x="2562.29" y="-866.6" font-family="Helvetica,sans-Serif" font-size="13.00">enp5s0f1</text>
</a>
</g>
</g>
<!-- durbe -->
<g id="node3" class="node"><title>durbe</title>
<polygon fill="none" stroke="black" points="2376,-3132 2160,-3132 2160,-3024 2376,-3024 2376,-3132"/>
<text text-anchor="middle" x="2268" y="-3073" font-family="Helvetica,sans-Serif" font-size="20.00">durbe</text>
</g>
<!-- durbe&#45;&#45;durbe -->
<g id="edge8" class="edge"><title>durbe&#45;&#45;durbe</title>
<path fill="none" stroke="#a2ad00" stroke-width="3" d="M2268,-3132.2C2268,-3142.43 2268,-3150 2268,-3150 2268,-3150 2052,-3150 2052,-3150 2052,-3150 2052,-2862 2052,-2862 2052,-2862 2340,-2862 2340,-2862 2340,-2862 2340,-2959.79 2340,-3023.77"/>
<g id="a_edge8&#45;headlabel"><a xlink:title="00:0d:b9:41:66:86">
<text text-anchor="middle" x="2317" y="-3013.37" font-family="Helvetica,sans-Serif" font-size="13.00">enp4s0</text>
</a>
</g>
<g id="a_edge8&#45;taillabel"><a xlink:title="00:0d:b9:41:66:85">
<text text-anchor="middle" x="2245" y="-3135.8" font-family="Helvetica,sans-Serif" font-size="13.00">enp3s0</text>
</a>
</g>
</g>
<!-- klaipeda -->
<g id="node4" class="node"><title>klaipeda</title>
<polygon fill="none" stroke="black" points="1080,-972 864,-972 864,-864 1080,-864 1080,-972"/>
<text text-anchor="middle" x="972" y="-913" font-family="Helvetica,sans-Serif" font-size="20.00">klaipeda</text>
</g>
<!-- narva -->
<g id="node5" class="node"><title>narva</title>
<polygon fill="none" stroke="black" points="1512,-540 1296,-540 1296,-432 1512,-432 1512,-540"/>
<text text-anchor="middle" x="1404" y="-481" font-family="Helvetica,sans-Serif" font-size="20.00">narva</text>
</g>
<!-- klaipeda&#45;&#45;narva -->
<g id="edge9" class="edge"><title>klaipeda&#45;&#45;narva</title>
<path fill="none" stroke="#e37222" stroke-width="3" d="M1080.25,-945C1218.48,-945 1440,-945 1440,-945 1440,-945 1440,-661.336 1440,-540.003"/>
<g id="a_edge9&#45;headlabel"><a xlink:title="90:e2:ba:1f:8d:44">
<text text-anchor="middle" x="1417" y="-543.603" font-family="Helvetica,sans-Serif" font-size="13.00">enp3s0</text>
</a>
</g>
<g id="a_edge9&#45;taillabel"><a xlink:title="00:1b:21:94:de:b4">
<text text-anchor="middle" x="1109.75" y="-948.6" font-family="Helvetica,sans-Serif" font-size="13.00">enp2s0f0</text>
</a>
</g>
</g>
<!-- klaipeda&#45;&#45;narva -->
<g id="edge10" class="edge"><title>klaipeda&#45;&#45;narva</title>
<path fill="none" stroke="#e37222" stroke-width="3" d="M1080.21,-931C1197.46,-931 1368,-931 1368,-931 1368,-931 1368,-658.714 1368,-540.121"/>
<g id="a_edge10&#45;headlabel"><a xlink:title="90:e2:ba:2c:cb:02">
<text text-anchor="middle" x="1345" y="-543.721" font-family="Helvetica,sans-Serif" font-size="13.00">enp1s0</text>
</a>
</g>
<g id="a_edge10&#45;taillabel"><a xlink:title="00:1b:21:94:de:b5">
<text text-anchor="middle" x="1109.71" y="-934.6" font-family="Helvetica,sans-Serif" font-size="13.00">enp2s0f1</text>
</a>
</g>
</g>
<!-- napi -->
<g id="node6" class="node"><title>napi</title>
<polygon fill="none" stroke="black" points="216,-1836 0,-1836 0,-1728 216,-1728 216,-1836"/>
<text text-anchor="middle" x="108" y="-1777" font-family="Helvetica,sans-Serif" font-size="20.00">napi</text>
</g>
<!-- omanyte -->
<g id="node7" class="node"><title>omanyte</title>
<polygon fill="none" stroke="black" points="648,-2268 432,-2268 432,-2160 648,-2160 648,-2268"/>
<text text-anchor="middle" x="540" y="-2209" font-family="Helvetica,sans-Serif" font-size="20.00">omanyte</text>
</g>
<!-- omastar -->
<g id="node8" class="node"><title>omastar</title>
<polygon fill="none" stroke="black" points="1080,-2700 864,-2700 864,-2592 1080,-2592 1080,-2700"/>
<text text-anchor="middle" x="972" y="-2641" font-family="Helvetica,sans-Serif" font-size="20.00">omastar</text>
</g>
<!-- omanyte&#45;&#45;omastar -->
<g id="edge11" class="edge"><title>omanyte&#45;&#45;omastar</title>
<path fill="none" stroke="#3070b3" stroke-width="3" d="M648.186,-2246C756.501,-2246 907.2,-2246 907.2,-2246 907.2,-2246 907.2,-2482.27 907.2,-2591.64"/>
<g id="a_edge11&#45;headlabel"><a xlink:title="90:e2:ba:92:c1:2c">
<text text-anchor="middle" x="885.7" y="-2581.24" font-family="Helvetica,sans-Serif" font-size="13.00">ens5f0</text>
</a>
</g>
<g id="a_edge11&#45;taillabel"><a xlink:title="90:e2:ba:7e:9f:6c">
<text text-anchor="middle" x="674.186" y="-2249.6" font-family="Helvetica,sans-Serif" font-size="13.00">ens15f0</text>
</a>
</g>
</g>
<!-- omanyte&#45;&#45;omastar -->
<g id="edge12" class="edge"><title>omanyte&#45;&#45;omastar</title>
<path fill="none" stroke="#3070b3" stroke-width="3" d="M648.096,-2224C769.688,-2224 950.4,-2224 950.4,-2224 950.4,-2224 950.4,-2477.72 950.4,-2591.69"/>
<g id="a_edge12&#45;headlabel"><a xlink:title="90:e2:ba:92:c1:2d">
<text text-anchor="middle" x="928.9" y="-2581.29" font-family="Helvetica,sans-Serif" font-size="13.00">ens5f1</text>
</a>
</g>
<g id="a_edge12&#45;taillabel"><a xlink:title="90:e2:ba:7e:9f:6d">
<text text-anchor="middle" x="674.096" y="-2227.6" font-family="Helvetica,sans-Serif" font-size="13.00">ens15f1</text>
</a>
</g>
</g>
<!-- omanyte&#45;&#45;omastar -->
<g id="edge13" class="edge"><title>omanyte&#45;&#45;omastar</title>
<path fill="none" stroke="#3070b3" stroke-width="3" d="M648.072,-2203C782.238,-2203 993.6,-2203 993.6,-2203 993.6,-2203 993.6,-2473.39 993.6,-2591.68"/>
<g id="a_edge13&#45;headlabel"><a xlink:title="0c:c4:7a:6f:22:95">
<text text-anchor="middle" x="1023.1" y="-2581.28" font-family="Helvetica,sans-Serif" font-size="13.00">enp4s0f1</text>
</a>
</g>
<g id="a_edge13&#45;taillabel"><a xlink:title="a0:36:9f:3b:71:d8">
<text text-anchor="middle" x="677.572" y="-2206.6" font-family="Helvetica,sans-Serif" font-size="13.00">enp5s0f0</text>
</a>
</g>
</g>
<!-- omanyte&#45;&#45;omastar -->
<g id="edge14" class="edge"><title>omanyte&#45;&#45;omastar</title>
<path fill="none" stroke="#3070b3" stroke-width="3" d="M648.104,-2181C794.25,-2181 1036.8,-2181 1036.8,-2181 1036.8,-2181 1036.8,-2469.09 1036.8,-2591.75"/>
<g id="a_edge14&#45;headlabel"><a xlink:title="0c:c4:7a:6f:22:94">
<text text-anchor="middle" x="1066.3" y="-2581.35" font-family="Helvetica,sans-Serif" font-size="13.00">enp4s0f0</text>
</a>
</g>
<g id="a_edge14&#45;taillabel"><a xlink:title="a0:36:9f:3b:71:da">
<text text-anchor="middle" x="677.604" y="-2184.6" font-family="Helvetica,sans-Serif" font-size="13.00">enp5s0f1</text>
</a>
</g>
</g>
<!-- palanga -->
<g id="node9" class="node"><title>palanga</title>
<polygon fill="none" stroke="black" points="3240,-2268 3024,-2268 3024,-2160 3240,-2160 3240,-2268"/>
<text text-anchor="middle" x="3132" y="-2209" font-family="Helvetica,sans-Serif" font-size="20.00">palanga</text>
</g>
<!-- tallinn -->
<g id="node10" class="node"><title>tallinn</title>
<polygon fill="none" stroke="black" points="2808,-2700 2592,-2700 2592,-2592 2808,-2592 2808,-2700"/>
<text text-anchor="middle" x="2700" y="-2641" font-family="Helvetica,sans-Serif" font-size="20.00">tallinn</text>
</g>
<!-- palanga&#45;&#45;tallinn -->
<g id="edge15" class="edge"><title>palanga&#45;&#45;tallinn</title>
<path fill="none" stroke="#3070b3" stroke-width="3" d="M3168,-2268.28C3168,-2387.97 3168,-2664 3168,-2664 3168,-2664 2946.48,-2664 2808.25,-2664"/>
<g id="a_edge15&#45;headlabel"><a xlink:title="a0:36:9f:3b:6d:50">
<text text-anchor="middle" x="2837.75" y="-2667.6" font-family="Helvetica,sans-Serif" font-size="13.00">enp2s0f0</text>
</a>
</g>
<g id="a_edge15&#45;taillabel"><a xlink:title="a0:36:9f:3b:5b:6c">
<text text-anchor="middle" x="3138.5" y="-2271.88" font-family="Helvetica,sans-Serif" font-size="13.00">enp2s0f0</text>
</a>
</g>
</g>
<!-- palanga&#45;&#45;tallinn -->
<g id="edge16" class="edge"><title>palanga&#45;&#45;tallinn</title>
<path fill="none" stroke="#3070b3" stroke-width="3" d="M3096,-2268.12C3096,-2380.34 3096,-2628 3096,-2628 3096,-2628 2925.46,-2628 2808.21,-2628"/>
<g id="a_edge16&#45;headlabel"><a xlink:title="a0:36:9f:3b:6d:52">
<text text-anchor="middle" x="2837.71" y="-2631.6" font-family="Helvetica,sans-Serif" font-size="13.00">enp2s0f1</text>
</a>
</g>
<g id="a_edge16&#45;taillabel"><a xlink:title="a0:36:9f:3b:5b:6e">
<text text-anchor="middle" x="3066.5" y="-2271.72" font-family="Helvetica,sans-Serif" font-size="13.00">enp2s0f1</text>
</a>
</g>
</g>
<!-- rapla -->
<g id="node11" class="node"><title>rapla</title>
<polygon fill="none" stroke="black" points="1512,-108 1296,-108 1296,-0 1512,-0 1512,-108"/>
<text text-anchor="middle" x="1404" y="-49" font-family="Helvetica,sans-Serif" font-size="20.00">rapla</text>
</g>
<!-- tapa -->
<g id="node12" class="node"><title>tapa</title>
<polygon fill="none" stroke="black" points="1080,-540 864,-540 864,-432 1080,-432 1080,-540"/>
<text text-anchor="middle" x="972" y="-481" font-family="Helvetica,sans-Serif" font-size="20.00">tapa</text>
</g>
<!-- rapla&#45;&#45;tapa -->
<g id="edge17" class="edge"><title>rapla&#45;&#45;tapa</title>
<path fill="none" stroke="#3070b3" stroke-width="3" d="M1295.82,-54C1167.86,-54 972,-54 972,-54 972,-54 972,-315.698 972,-431.724"/>
<g id="a_edge17&#45;headlabel"><a xlink:title="0c:c4:7a:1e:34:2f">
<text text-anchor="middle" x="942.5" y="-421.324" font-family="Helvetica,sans-Serif" font-size="13.00">enp5s0f1</text>
</a>
</g>
<g id="a_edge17&#45;taillabel"><a xlink:title="0c:c4:7a:1e:34:59">
<text text-anchor="middle" x="1266.32" y="-57.6" font-family="Helvetica,sans-Serif" font-size="13.00">enp5s0f1</text>
</a>
</g>
</g>
<!-- riga -->
<g id="node13" class="node"><title>riga</title>
<polygon fill="none" stroke="black" points="3240,-1404 3024,-1404 3024,-1296 3240,-1296 3240,-1404"/>
<text text-anchor="middle" x="3132" y="-1345" font-family="Helvetica,sans-Serif" font-size="20.00">riga</text>
</g>
<!-- vilnius -->
<g id="node14" class="node"><title>vilnius</title>
<polygon fill="none" stroke="black" points="3672,-1836 3456,-1836 3456,-1728 3672,-1728 3672,-1836"/>
<text text-anchor="middle" x="3564" y="-1777" font-family="Helvetica,sans-Serif" font-size="20.00">vilnius</text>
</g>
<!-- riga&#45;&#45;vilnius -->
<g id="edge18" class="edge"><title>riga&#45;&#45;vilnius</title>
<path fill="none" stroke="#a2ad00" stroke-width="3" d="M3078,-1404C3078,-1525.34 3078,-1809 3078,-1809 3078,-1809 3312.63,-1809 3455.84,-1809"/>
<g id="a_edge18&#45;headlabel"><a xlink:title="00:25:90:7a:cb:c9">
<text text-anchor="middle" x="3428.34" y="-1812.6" font-family="Helvetica,sans-Serif" font-size="13.00">enp0s25</text>
</a>
</g>
<g id="a_edge18&#45;taillabel"><a xlink:title="00:25:90:74:77:b9">
<text text-anchor="middle" x="3050.5" y="-1407.6" font-family="Helvetica,sans-Serif" font-size="13.00">enp0s25</text>
</a>
</g>
</g>
<!-- riga&#45;&#45;vilnius -->
<g id="edge19" class="edge"><title>riga&#45;&#45;vilnius</title>
<path fill="none" stroke="#a2ad00" stroke-width="3" d="M3132,-1404.28C3132,-1520.3 3132,-1782 3132,-1782 3132,-1782 3327.86,-1782 3455.82,-1782"/>
<g id="a_edge19&#45;headlabel"><a xlink:title="a0:36:9f:54:c1:71">
<text text-anchor="middle" x="3426.32" y="-1785.6" font-family="Helvetica,sans-Serif" font-size="13.00">enp2s0f1</text>
</a>
</g>
<g id="a_edge19&#45;taillabel"><a xlink:title="90:e2:ba:1c:55:54">
<text text-anchor="middle" x="3161.5" y="-1407.88" font-family="Helvetica,sans-Serif" font-size="13.00">enp4s0f0</text>
</a>
</g>
</g>
<!-- riga&#45;&#45;vilnius -->
<g id="edge20" class="edge"><title>riga&#45;&#45;vilnius</title>
<path fill="none" stroke="#a2ad00" stroke-width="3" d="M3186,-1404.2C3186,-1514.56 3186,-1755 3186,-1755 3186,-1755 3344.22,-1755 3455.93,-1755"/>
<g id="a_edge20&#45;headlabel"><a xlink:title="a0:36:9f:54:c1:70">
<text text-anchor="middle" x="3426.43" y="-1758.6" font-family="Helvetica,sans-Serif" font-size="13.00">enp2s0f0</text>
</a>
</g>
<g id="a_edge20&#45;taillabel"><a xlink:title="90:e2:ba:1c:55:55">
<text text-anchor="middle" x="3215.5" y="-1407.8" font-family="Helvetica,sans-Serif" font-size="13.00">enp4s0f1</text>
</a>
</g>
</g>
<!-- tartu -->
<g id="node15" class="node"><title>tartu</title>
<polygon fill="none" stroke="black" points="648,-1404 432,-1404 432,-1296 648,-1296 648,-1404"/>
<text text-anchor="middle" x="540" y="-1345" font-family="Helvetica,sans-Serif" font-size="20.00">tartu</text>
</g>
<!-- tilga -->
<g id="node16" class="node"><title>tilga</title>
<polygon fill="none" stroke="black" points="1944,-108 1728,-108 1728,-0 1944,-0 1944,-108"/>
<text text-anchor="middle" x="1836" y="-49" font-family="Helvetica,sans-Serif" font-size="20.00">tilga</text>
</g>
<!-- tilga&#45;&#45;klaipeda -->
<g id="edge21" class="edge"><title>tilga&#45;&#45;klaipeda</title>
<path fill="none" stroke="#e37222" stroke-width="3" d="M1872,-108.177C1872,-303.208 1872,-958 1872,-958 1872,-958 1319.25,-958 1080.11,-958"/>
<g id="a_edge21&#45;headlabel"><a xlink:title="00:1b:21:94:de:b5">
<text text-anchor="middle" x="1109.61" y="-961.6" font-family="Helvetica,sans-Serif" font-size="13.00">enp2s0f1</text>
</a>
</g>
<g id="a_edge21&#45;taillabel"><a xlink:title="0c:c4:7a:88:04:8c">
<text text-anchor="middle" x="1856" y="-111.777" font-family="Helvetica,sans-Serif" font-size="13.00">eno3</text>
</a>
</g>
</g>
<!-- tilga&#45;&#45;narva -->
<g id="edge22" class="edge"><title>tilga&#45;&#45;narva</title>
<path fill="none" stroke="#e37222" stroke-width="3" d="M1800,-108.276C1800,-224.302 1800,-486 1800,-486 1800,-486 1629.46,-486 1512.21,-486"/>
<g id="a_edge22&#45;headlabel"><a xlink:title="90:e2:ba:1f:8d:44">
<text text-anchor="middle" x="1535.21" y="-489.6" font-family="Helvetica,sans-Serif" font-size="13.00">enp3s0</text>
</a>
</g>
<g id="a_edge22&#45;taillabel"><a xlink:title="0c:c4:7a:88:04:8d">
<text text-anchor="middle" x="1784" y="-111.876" font-family="Helvetica,sans-Serif" font-size="13.00">eno4</text>
</a>
</g>
</g>
<!-- legendl0 -->
<!-- legendr0 -->
<!-- legendl0&#45;&#45;legendr0 -->
<g id="edge1" class="edge"><title>legendl0&#45;&#45;legendr0</title>
<path fill="none" stroke="#a2ad00" stroke-width="3" d="M3455.89,-81C3289.93,-81 2974.25,-81 2808.23,-81"/>
<text text-anchor="middle" x="2880.73" y="-86.2" font-family="Helvetica,sans-Serif" font-size="16.00">1 GbE twisted pair</text>
</g>
<!-- legendl0&#45;&#45;legendr0 -->
<g id="edge2" class="edge"><title>legendl0&#45;&#45;legendr0</title>
<path fill="none" stroke="#3070b3" stroke-width="3" d="M3455.89,-54C3289.93,-54 2974.25,-54 2808.23,-54"/>
<text text-anchor="middle" x="2885.73" y="-59.2" font-family="Helvetica,sans-Serif" font-size="16.00">10 GbE twisted pair</text>
</g>
<!-- legendl0&#45;&#45;legendr0 -->
<g id="edge3" class="edge"><title>legendl0&#45;&#45;legendr0</title>
<path fill="none" stroke="#e37222" stroke-width="3" d="M3455.89,-27C3289.93,-27 2974.25,-27 2808.23,-27"/>
<text text-anchor="middle" x="2857.23" y="-32.2" font-family="Helvetica,sans-Serif" font-size="16.00">10 GbE fiber</text>
</g>
<!-- slowpoke -->
<g id="node19" class="node"><title>slowpoke</title>
<polygon fill="none" stroke="black" points="1512,-3132 1296,-3132 1296,-3024 1512,-3024 1512,-3132"/>
<text text-anchor="middle" x="1404" y="-3073" font-family="Helvetica,sans-Serif" font-size="20.00">slowpoke</text>
</g>
</g>
</svg>
